<?xml version="1.0" encoding="UTF-8" standalone="no"?>
<!-- Created with Inkscape (http://www.inkscape.org/) -->

<svg
   width="8.2247343mm"
   height="12.70002mm"
   viewBox="0 0 8.2247343 12.70002"
   version="1.1"
   id="svg1"
   inkscape:version="1.3.2 (091e20ef0f, 2023-11-25, custom)"
   sodipodi:docname="logo.svg"
   xmlns:inkscape="http://www.inkscape.org/namespaces/inkscape"
   xmlns:sodipodi="http://sodipodi.sourceforge.net/DTD/sodipodi-0.dtd"
   xmlns="http://www.w3.org/2000/svg"
   xmlns:svg="http://www.w3.org/2000/svg">
  <sodipodi:namedview
     id="namedview1"
     pagecolor="#ffffff"
     bordercolor="#000000"
     borderopacity="0.25"
     inkscape:showpageshadow="2"
     inkscape:pageopacity="0.0"
     inkscape:pagecheckerboard="0"
     inkscape:deskcolor="#d1d1d1"
     inkscape:document-units="mm"
     inkscape:zoom="0.57460017"
     inkscape:cx="41.768174"
     inkscape:cy="173.16389"
     inkscape:window-width="1600"
     inkscape:window-height="849"
     inkscape:window-x="0"
     inkscape:window-y="27"
     inkscape:window-maximized="1"
     inkscape:current-layer="layer1" />
  <defs
     id="defs1" />
  <g
     inkscape:label="Capa 1"
     inkscape:groupmode="layer"
     id="layer1"
     transform="translate(-93.892246,-102.58367)">
    <path
       fill-rule="evenodd"
       clip-rule="evenodd"
       d="m 100.08239,108.84185 c -0.0115,0.0736 -0.0395,0.14367 -0.0819,0.20495 -0.04242,0.0613 -0.09813,0.1121 -0.162988,0.14877 -0.130625,0.0844 -0.244898,0.12653 -0.360521,0.1687 -0.246248,0.085 -0.505434,0.17008 -0.779569,0.26871 -0.289083,0.0986 -0.548269,0.19725 -0.779542,0.26869 -0.288422,0.0986 -0.562557,0.18365 -0.823092,0.28228 -0.196003,0.0839 -0.380127,0.1932 -0.547581,0.32518 -0.15575,0.1411 -0.291672,0.30265 -0.404062,0.48024 -0.115641,0.19725 -0.188425,0.45167 -0.188425,0.74824 0,0.59386 0.144208,1.04553 0.433311,1.32784 0.288424,0.29726 0.823094,0.43807 1.615548,0.43807 0.808143,0 1.356413,-0.1551 1.646185,-0.46596 0.287734,-0.31088 0.431936,-0.74827 0.431936,-1.31286 v -2.88285 z m -2.078122,-6.25816 c 1.414886,0 2.453612,0.26869 3.116842,0.81968 0.66392,0.53739 0.99587,1.22851 0.99587,2.0475 v 6.97924 c 0,0.28228 -0.0571,0.59317 -0.15783,0.93191 -0.10202,0.34012 -0.30337,0.65032 -0.62105,0.93192 -0.30271,0.28366 -0.72104,0.52379 -1.25503,0.70744 -0.533979,0.18367 -1.226473,0.28231 -2.078114,0.28231 -0.850292,0 -1.54414,-0.0986 -2.077445,-0.28231 -0.533305,-0.18365 -0.952331,-0.42378 -1.255035,-0.70744 -0.281596,-0.25376 -0.494919,-0.5742 -0.620375,-0.93192 -0.102035,-0.33808 -0.159855,-0.64894 -0.159855,-0.93123 v -1.11559 c 0,-0.59385 0.158495,-1.14485 0.476165,-1.62578 0.31767,-0.49385 0.764585,-0.83259 1.342105,-1.04484 0.288419,-0.0986 0.620376,-0.19725 0.995177,-0.32446 0.375497,-0.1279 0.721069,-0.25508 1.067964,-0.36732 0.346922,-0.11361 0.649632,-0.2272 0.908817,-0.32652 0.156396,-0.0626 0.315251,-0.11885 0.476145,-0.1687 l 0.259873,-0.12721 c 0.102024,-0.0565 0.20201,-0.14147 0.303372,-0.2544 0.100674,-0.11224 0.18706,-0.23945 0.259847,-0.38095 0.07691,-0.15319 0.116519,-0.32242 0.115649,-0.49384 v -0.45236 c 0.001,-0.16579 -0.0337,-0.32985 -0.10205,-0.48093 -0.05712,-0.17005 -0.172772,-0.32514 -0.331258,-0.46595 -0.158512,-0.14149 -0.375497,-0.25441 -0.634656,-0.34012 -0.259874,-0.0837 -0.60542,-0.12652 -0.995865,-0.12652 -0.808143,0 -1.342126,0.15645 -1.630535,0.48024 -0.244885,0.28298 -0.389096,0.63602 -0.417666,1.03123 0,0.085 -0.0721,0.1415 -0.159173,0.1415 l -1.759771,0.0286 c -0.0418,1.8e-4 -0.08198,-0.0162 -0.111796,-0.0455 -0.02981,-0.0293 -0.04684,-0.0692 -0.04738,-0.11099 v -0.40815 c 0,-0.39658 0.07278,-0.76391 0.23128,-1.11695 0.159176,-0.35373 0.404741,-0.64963 0.736015,-0.90471 0.331955,-0.25373 0.765265,-0.46529 1.284285,-0.60678 0.505415,-0.17005 1.125784,-0.24012 1.846826,-0.24012 z"
       fill="#0a3871"
       id="path1"
       style="stroke-width:0.264583" />
  </g>
</svg>
